<?xml version="1.0" encoding="UTF-8" standalone="no"?>
<!DOCTYPE svg PUBLIC "-//W3C//DTD SVG 1.1//EN" "http://www.w3.org/Graphics/SVG/1.1/DTD/svg11.dtd">
<svg width="100%" height="100%" viewBox="0 0 470 110" version="1.1" xmlns="http://www.w3.org/2000/svg" xmlns:xlink="http://www.w3.org/1999/xlink" xml:space="preserve" xmlns:serif="http://www.serif.com/" style="fill-rule:evenodd;clip-rule:evenodd;stroke-linejoin:round;stroke-miterlimit:2;">
    <g id="logo_texte_svg" transform="matrix(0.458984,0,0,0.143229,0,0)">
        <rect x="0" y="0" width="1024" height="768" style="fill:none;"/>
        <g transform="matrix(5.45462,0,0,7.894,-2561.35,-179.011)">
            <path d="M529.552,97.4C528.046,97.4 526.763,96.817 525.702,95.65C524.64,94.483 523.786,92.967 523.139,91.1C522.491,89.233 522.017,87.208 521.716,85.025C521.415,82.842 521.265,80.733 521.265,78.7L521.265,77.6C521.265,75.4 521.419,73.2 521.727,71C522.036,68.8 522.514,66.8 523.161,65C523.809,63.2 524.652,61.75 525.69,60.65C526.729,59.55 527.971,59 529.416,59C530.891,59 532.156,59.567 533.21,60.7C534.263,61.833 535.099,63.417 535.716,65.45C536.333,67.483 536.71,69.883 536.845,72.65L534.587,72.65C534.467,70.583 534.166,68.875 533.684,67.525C533.202,66.175 532.596,65.167 531.866,64.5C531.136,63.833 530.319,63.5 529.416,63.5C528.438,63.5 527.58,63.875 526.842,64.625C526.104,65.375 525.491,66.425 525.002,67.775C524.512,69.125 524.144,70.683 523.895,72.45C523.647,74.217 523.523,76.133 523.523,78.2C523.523,80.167 523.647,82.033 523.895,83.8C524.144,85.567 524.52,87.133 525.024,88.5C525.528,89.867 526.157,90.942 526.91,91.725C527.662,92.508 528.543,92.9 529.552,92.9C530.967,92.9 532.156,92.117 533.119,90.55C534.083,88.983 534.67,86.717 534.881,83.75L537.139,83.75C536.988,86.25 536.608,88.533 535.998,90.6C535.389,92.667 534.546,94.317 533.469,95.55C532.393,96.783 531.087,97.4 529.552,97.4ZM545.584,97.4C544.53,97.4 543.604,97 542.806,96.2C542.009,95.4 541.335,94.342 540.785,93.025C540.236,91.708 539.822,90.233 539.544,88.6C539.265,86.967 539.126,85.3 539.126,83.6L539.126,82.7C539.126,81 539.269,79.325 539.555,77.675C539.841,76.025 540.262,74.542 540.819,73.225C541.376,71.908 542.054,70.858 542.852,70.075C543.649,69.292 544.56,68.9 545.584,68.9C546.608,68.9 547.518,69.292 548.316,70.075C549.114,70.858 549.791,71.908 550.348,73.225C550.905,74.542 551.327,76.025 551.613,77.675C551.899,79.325 552.042,81 552.042,82.7L552.042,83.6C552.042,85.3 551.903,86.967 551.624,88.6C551.346,90.233 550.932,91.708 550.382,93.025C549.833,94.342 549.159,95.4 548.361,96.2C547.563,97 546.638,97.4 545.584,97.4ZM545.584,93.1C546.487,93.1 547.259,92.658 547.898,91.775C548.538,90.892 549.027,89.7 549.366,88.2C549.705,86.7 549.874,85.017 549.874,83.15C549.874,81.25 549.701,79.55 549.355,78.05C549.009,76.55 548.516,75.367 547.876,74.5C547.236,73.633 546.472,73.2 545.584,73.2C544.711,73.2 543.951,73.633 543.303,74.5C542.656,75.367 542.159,76.55 541.813,78.05C541.467,79.55 541.294,81.25 541.294,83.15C541.294,85.017 541.463,86.7 541.802,88.2C542.14,89.7 542.63,90.892 543.269,91.775C543.909,92.658 544.681,93.1 545.584,93.1ZM557.01,77.782C557.166,75.388 557.523,73.535 558.082,72.225C558.858,70.408 560.02,69.5 561.571,69.5L561.977,69.5L561.977,73.8L561.21,73.8C560.005,73.8 559.08,74.508 558.432,75.925C557.785,77.342 557.461,79.383 557.461,82.05L557.461,96.5L555.294,96.5L555.294,69.8L557.01,69.8L557.01,77.782ZM571.168,96.5L567.532,96.5L563.423,69.8L565.681,69.8L569.128,92.7L569.611,92.7L572.613,69.8L574.735,69.8L571.168,96.5ZM585.845,90.322C585.787,90.814 585.719,91.282 585.642,91.725C585.326,93.542 584.855,94.925 584.231,95.875C583.606,96.825 582.812,97.3 581.848,97.3L581.758,97.3C580.328,97.3 579.229,96.267 578.461,94.2C577.694,92.133 577.31,89.15 577.31,85.25L577.31,69.75L579.477,69.75L579.477,86.2C579.477,88.3 579.733,89.942 580.245,91.125C580.757,92.308 581.449,92.9 582.323,92.9C583.226,92.9 583.963,92.258 584.535,90.975C585.108,89.692 585.394,87.933 585.394,85.7L585.394,69.75L587.561,69.75L587.561,96.5L585.845,96.5L585.845,90.322ZM595.713,97.3C594.132,97.3 592.909,96.55 592.044,95.05C591.178,93.55 590.73,91.5 590.7,88.9L592.732,88.9C592.762,89.933 592.999,90.908 593.444,91.825C593.888,92.742 594.644,93.2 595.713,93.2C596.676,93.2 597.414,92.775 597.926,91.925C598.438,91.075 598.694,90.033 598.694,88.8C598.694,87.7 598.505,86.842 598.129,86.225C597.753,85.608 597.143,85.2 596.3,85L594.99,84.7C593.846,84.433 592.913,83.675 592.19,82.425C591.468,81.175 591.106,79.417 591.106,77.15C591.106,75.45 591.302,73.992 591.694,72.775C592.085,71.558 592.627,70.625 593.319,69.975C594.012,69.325 594.81,69 595.713,69C597.068,69 598.167,69.667 599.01,71C599.853,72.333 600.289,74.317 600.319,76.95L598.287,76.95C598.272,75.883 598.05,74.975 597.621,74.225C597.192,73.475 596.556,73.1 595.713,73.1C594.87,73.1 594.23,73.483 593.794,74.25C593.357,75.017 593.139,75.983 593.139,77.15C593.139,78.15 593.293,78.95 593.602,79.55C593.91,80.15 594.418,80.533 595.126,80.7L596.435,81C597.73,81.3 598.769,82.092 599.552,83.375C600.334,84.658 600.726,86.467 600.726,88.8C600.726,90.467 600.511,91.942 600.082,93.225C599.653,94.508 599.062,95.508 598.31,96.225C597.557,96.942 596.691,97.3 595.713,97.3ZM606.394,80.55L606.394,96.5L604.181,96.5L604.181,60L606.394,60L606.394,76.15L615.335,76.15L615.335,60L617.548,60L617.548,96.5L615.335,96.5L615.335,80.55L606.394,80.55ZM627.574,97.4C626.52,97.4 625.595,97 624.797,96.2C623.999,95.4 623.325,94.342 622.776,93.025C622.226,91.708 621.812,90.233 621.534,88.6C621.255,86.967 621.116,85.3 621.116,83.6L621.116,82.7C621.116,81 621.259,79.325 621.545,77.675C621.831,76.025 622.253,74.542 622.81,73.225C623.367,71.908 624.044,70.858 624.842,70.075C625.64,69.292 626.551,68.9 627.574,68.9C628.598,68.9 629.509,69.292 630.306,70.075C631.104,70.858 631.782,71.908 632.339,73.225C632.896,74.542 633.317,76.025 633.603,77.675C633.889,79.325 634.032,81 634.032,82.7L634.032,83.6C634.032,85.3 633.893,86.967 633.615,88.6C633.336,90.233 632.922,91.708 632.373,93.025C631.823,94.342 631.149,95.4 630.352,96.2C629.554,97 628.628,97.4 627.574,97.4ZM627.574,93.1C628.477,93.1 629.249,92.658 629.889,91.775C630.528,90.892 631.018,89.7 631.356,88.2C631.695,86.7 631.865,85.017 631.865,83.15C631.865,81.25 631.691,79.55 631.345,78.05C630.999,76.55 630.506,75.367 629.866,74.5C629.226,73.633 628.462,73.2 627.574,73.2C626.701,73.2 625.941,73.633 625.294,74.5C624.646,75.367 624.149,76.55 623.803,78.05C623.457,79.55 623.284,81.25 623.284,83.15C623.284,85.017 623.453,86.7 623.792,88.2C624.131,89.7 624.62,90.892 625.26,91.775C625.899,92.658 626.671,93.1 627.574,93.1ZM637.419,63.8L635.748,63.8L635.748,60L639.587,60L639.587,96.5L637.419,96.5L637.419,63.8ZM653.429,91.089C653.359,91.415 653.284,91.727 653.203,92.025C652.691,93.908 652.048,95.275 651.273,96.125C650.497,96.975 649.666,97.4 648.777,97.4C647.919,97.4 647.129,97.05 646.406,96.35C645.684,95.65 645.055,94.667 644.521,93.4C643.987,92.133 643.573,90.667 643.279,89C642.985,87.333 642.839,85.533 642.839,83.6L642.839,82.7C642.839,80.8 642.982,79.017 643.268,77.35C643.554,75.683 643.956,74.217 644.476,72.95C644.995,71.683 645.612,70.692 646.327,69.975C647.042,69.258 647.837,68.9 648.71,68.9C649.628,68.9 650.463,69.325 651.216,70.175C651.923,70.973 652.51,72.189 652.977,73.824L652.977,60L655.145,60L655.145,96.5L653.429,96.5L653.429,91.089ZM649.071,93.2C649.809,93.2 650.478,92.833 651.081,92.1C651.683,91.367 652.165,90.308 652.526,88.925C652.887,87.542 653.068,85.917 653.068,84.05L653.068,81.75C653.068,79.917 652.883,78.358 652.515,77.075C652.146,75.792 651.656,74.808 651.047,74.125C650.437,73.442 649.771,73.1 649.048,73.1C648.251,73.1 647.547,73.517 646.937,74.35C646.327,75.183 645.853,76.35 645.515,77.85C645.176,79.35 645.006,81.117 645.006,83.15C645.006,85.183 645.18,86.958 645.526,88.475C645.872,89.992 646.354,91.158 646.971,91.975C647.588,92.792 648.288,93.2 649.071,93.2Z"/>
        </g>
        <g transform="matrix(2.17872,0,0,6.98182,-4506.19,-10787.4)">
            <path d="M2148.33,1642.53C2146.41,1642.96 2144.2,1643.36 2141.57,1643.79C2138.16,1644.34 2133.23,1644.34 2128.64,1644.12C2128.61,1644.18 2128.1,1646.71 2129.43,1647.17C2129.92,1647.34 2134.01,1647.52 2133.6,1649.19C2133.43,1649.91 2130.53,1649.64 2127.53,1649.64C2124.28,1649.63 2120.91,1649.83 2120.78,1649C2120.64,1648.14 2121.85,1647.31 2124.2,1647.22C2124.43,1647.21 2125.36,1647.14 2125.37,1645.5C2125.37,1645.45 2125.39,1644.52 2125.35,1643.93C2121.06,1643.64 2117.58,1643.23 2116.78,1643.03C2111.69,1641.82 2115.42,1642.4 2104.69,1644.19C2089.39,1646.74 2076.26,1649.11 2073.85,1642.75C2072.28,1638.59 2081.9,1634.12 2083.36,1633.34C2079.97,1625.8 2080.61,1625.86 2095.74,1608.81C2106.71,1596.44 2116.23,1571.46 2116.54,1567.81C2116.29,1566.2 2113.66,1564.19 2117.56,1564.29C2118.37,1564.31 2120.43,1564.08 2118.92,1562.46C2118.38,1561.87 2116.01,1558.08 2119.91,1557.36C2123.93,1556.61 2124.28,1557.99 2131.29,1554.44C2135.88,1552.11 2143.08,1550.64 2147.89,1550.47C2152.07,1550.32 2162.36,1550.54 2174.78,1564.06C2180.24,1570 2181.52,1568.39 2188.68,1572.12C2192.4,1574.06 2191.82,1574.82 2191.62,1575.09C2189.26,1578.24 2179.33,1579.92 2179.72,1585.96C2179.9,1588.64 2178.87,1608.85 2176,1617.07C2173.5,1624.21 2168.57,1631.54 2162.49,1636.02C2158.62,1638.87 2155.84,1640.48 2151.47,1641.74C2151.39,1642.71 2151.2,1646.29 2152.35,1646.69C2152.84,1646.86 2156.93,1647.04 2156.53,1648.71C2156.36,1649.39 2153.3,1649.41 2150.5,1649.45C2147.09,1649.49 2143.84,1649.39 2143.7,1648.52C2143.56,1647.66 2144.77,1646.83 2147.13,1646.74C2147.35,1646.73 2148.29,1646.45 2148.29,1645.02C2148.29,1644.98 2148.33,1643.49 2148.33,1642.53ZM2159.94,1565.04C2154.57,1565.04 2150.2,1569.16 2150.2,1574.24C2150.2,1579.33 2154.57,1583.45 2159.94,1583.45C2165.31,1583.45 2169.68,1579.33 2169.68,1574.24C2169.68,1569.16 2165.31,1565.04 2159.94,1565.04Z"/>
        </g>
    </g>
</svg>
